<svg width="200" height="200" viewBox="0 0 200 200" fill="none" xmlns="http://www.w3.org/2000/svg">
<rect width="200" height="200" fill="white"/>
<path d="M24.4716 77.3523V65.1818H81.8125V77.3523H60.4375V135H45.8466V77.3523H24.4716ZM106.017 65.1818V135H91.2557V65.1818H106.017ZM142.912 135H118.162V65.1818H143.116C150.139 65.1818 156.185 66.5795 161.253 69.375C166.321 72.1477 170.219 76.1364 172.946 81.3409C175.696 86.5455 177.071 92.7727 177.071 100.023C177.071 107.295 175.696 113.545 172.946 118.773C170.219 124 166.298 128.011 161.185 130.807C156.094 133.602 150.003 135 142.912 135ZM132.923 122.352H142.298C146.662 122.352 150.332 121.58 153.31 120.034C156.31 118.466 158.56 116.045 160.06 112.773C161.582 109.477 162.344 105.227 162.344 100.023C162.344 94.8636 161.582 90.6477 160.06 87.375C158.56 84.1023 156.321 81.6932 153.344 80.1477C150.366 78.6023 146.696 77.8295 142.332 77.8295H132.923V122.352Z" fill="#FF0000"/>
</svg>
